<svg xmlns="http://www.w3.org/2000/svg" viewBox="0 0 900 520" font-family="Arial, sans-serif">
  <rect width="900" height="520" fill="#0a0e17"/>
  <text x="450" y="30" fill="#06b6d4" font-size="18" font-weight="bold" text-anchor="middle">AgentShield Architecture</text>

  <rect x="30" y="60" width="200" height="100" rx="8" fill="#111827" stroke="#1e293b"/>
  <text x="130" y="95" fill="#94a3b8" font-size="12" text-anchor="middle">Content Sources</text>
  <text x="130" y="115" fill="#64748b" font-size="10" text-anchor="middle">Email, Slack, PDF, Web</text>
  <text x="130" y="135" fill="#64748b" font-size="10" text-anchor="middle">Telegram, RAG, CRM</text>

  <rect x="700" y="60" width="170" height="100" rx="8" fill="#111827" stroke="#1e293b"/>
  <text x="785" y="95" fill="#94a3b8" font-size="12" text-anchor="middle">AI Agents</text>
  <text x="785" y="120" fill="#64748b" font-size="10" text-anchor="middle">OpenClaw</text>
  <text x="785" y="140" fill="#64748b" font-size="10" text-anchor="middle">Custom Agents</text>

  <rect x="280" y="50" width="340" height="380" rx="12" fill="#111827" stroke="#06b6d4" stroke-width="2"/>
  <text x="450" y="80" fill="#06b6d4" font-size="14" font-weight="bold" text-anchor="middle">AgentShield</text>

  <rect x="310" y="100" width="280" height="40" rx="6" fill="#1e293b" stroke="#334155"/>
  <text x="450" y="125" fill="#e2e8f0" font-size="11" text-anchor="middle">REST API Gateway</text>

  <rect x="310" y="155" width="130" height="35" rx="4" fill="#1e293b" stroke="#ef4444"/>
  <text x="375" y="177" fill="#fca5a5" font-size="10" text-anchor="middle">Layer 1: Regex</text>

  <rect x="460" y="155" width="130" height="35" rx="4" fill="#1e293b" stroke="#f59e0b"/>
  <text x="525" y="177" fill="#fcd34d" font-size="10" text-anchor="middle">Layer 2: Heuristic</text>

  <rect x="310" y="200" width="130" height="35" rx="4" fill="#1e293b" stroke="#8b5cf6"/>
  <text x="375" y="222" fill="#c4b5fd" font-size="10" text-anchor="middle">Layer 3: Grok LLM</text>

  <rect x="460" y="200" width="130" height="35" rx="4" fill="#1e293b" stroke="#10b981"/>
  <text x="525" y="222" fill="#6ee7b7" font-size="10" text-anchor="middle">Layer 4: Risk Engine</text>

  <rect x="310" y="255" width="280" height="35" rx="4" fill="#1e293b" stroke="#06b6d4"/>
  <text x="450" y="277" fill="#67e8f9" font-size="10" text-anchor="middle">Prompt Sanitizer</text>

  <rect x="310" y="310" width="130" height="35" rx="4" fill="#1e293b" stroke="#334155"/>
  <text x="375" y="332" fill="#94a3b8" font-size="10" text-anchor="middle">SQLite DB</text>

  <rect x="460" y="310" width="130" height="35" rx="4" fill="#1e293b" stroke="#334155"/>
  <text x="525" y="332" fill="#94a3b8" font-size="10" text-anchor="middle">Next.js Dashboard</text>

  <rect x="30" y="400" width="840" height="90" rx="8" fill="#111827" stroke="#1e293b"/>
  <text x="450" y="430" fill="#94a3b8" font-size="12" text-anchor="middle">Docker Compose Deployment</text>
  <text x="450" y="455" fill="#64748b" font-size="10" text-anchor="middle">Frontend :3000  |  Backend :8000  |  Volume: SQLite</text>

  <line x1="230" y1="110" x2="280" y2="120" stroke="#475569" stroke-width="2" marker-end="url(#arrow)"/>
  <line x1="620" y1="120" x2="700" y2="110" stroke="#10b981" stroke-width="2" marker-end="url(#arrow)"/>
  <defs><marker id="arrow" markerWidth="10" markerHeight="7" refX="9" refY="3.5" orient="auto"><polygon points="0 0, 10 3.5, 0 7" fill="#475569"/></marker></defs>
</svg>
